<svg viewBox="0 0 160 40" fill="none" xmlns="http://www.w3.org/2000/svg">
  <path d="M26.8476 16.4041C25.7895 17.2754 25.0011 17.4207 24.6484 17.068C24.4202 16.8398 24.3787 16.3833 24.5446 15.8024C25.1048 13.9559 25.5405 12.0887 25.8932 10.2007C28.0094 9.26713 30.1256 8.39576 32.47 8.16754C31.3704 11.1758 29.3579 14.3086 26.8476 16.4041ZM25.7687 22.6074C24.4409 22.3377 23.8185 21.7568 23.86 21.2381C23.8807 20.9062 24.192 20.5742 24.7314 20.346C26.3911 19.6406 28.0301 18.873 29.5862 17.9394C31.6401 18.9352 33.6111 20.2008 35.1878 21.7983C32.304 22.8771 28.7563 23.2298 25.7687 22.6074ZM20.2915 25.8854C19.6484 24.5576 19.7106 23.6448 20.1255 23.3336C20.416 23.1261 20.8724 23.1676 21.3911 23.458C23.0094 24.3709 24.6484 25.2008 26.3911 25.8854C26.3911 25.8854 26.3911 25.8854 26.3911 25.9062C27.0135 28.3958 27.387 31.0099 27.221 33.5825C24.3372 31.7568 21.7231 28.8522 20.2915 25.8854ZM14.0882 23.4995C14.8143 22.0472 15.582 21.4871 16.1006 21.6531C16.4533 21.7568 16.7023 22.151 16.7853 22.7941C17.0758 24.8273 17.5114 26.819 18.0301 28.79C16.2251 31.2174 14.2957 33.5618 11.8683 35.4705C11.5986 31.5493 12.3454 27.0473 14.0882 23.4995ZM12.221 16.7983C13.86 16.4663 14.7521 16.736 14.9596 17.2547C15.084 17.5867 14.9181 18.0431 14.4616 18.541C12.9264 20.1385 11.5156 21.819 10.167 23.5618H10.1463C6.84751 23.79 3.40352 23.6655 0.166992 22.8979C3.46576 20.1178 7.92635 17.6489 12.221 16.7983ZM16.4118 11.3626C17.6359 12.4207 17.9679 13.2505 17.6982 13.707C17.5114 13.9974 17.0757 14.1427 16.4118 14.0804C14.2127 13.8315 12.0135 13.7277 9.79357 13.7277C7.69813 11.3211 5.78941 8.64472 4.56534 5.76089C8.73548 6.69451 13.2168 8.64472 16.4118 11.3626ZM22.9264 11.4456C22.9264 12.9393 22.5114 13.6862 22.0135 13.7277C21.6816 13.7692 21.3081 13.4995 20.9554 12.9601C19.8351 11.2173 18.611 9.53684 17.304 7.89783C17.8019 5.28371 18.611 2.62811 20.0011 0.325195C21.7438 3.66545 22.9471 7.73185 22.9264 11.4456Z" fill="#146E37"></path>
  <path fill-rule="evenodd" clip-rule="evenodd" d="M17.3038 7.87705C17.8017 5.28369 18.6108 2.62808 20.0009 0.325167C17.0341 -0.0897716 13.9843 0.262926 11.2042 1.30027C12.9054 2.96003 14.5859 4.64053 16.1005 6.44551C16.2773 6.65959 16.4667 6.88201 16.6536 7.10154C16.8833 7.37136 17.1093 7.63682 17.3038 7.87705ZM26.7011 2.66884C26.5766 4.66055 26.4314 6.63151 26.1409 8.58172C26.1064 8.79783 26.0718 9.03195 26.0372 9.26607V9.26609C25.9888 9.59386 25.9404 9.92163 25.892 10.2C28.0082 9.26637 30.1243 8.395 32.4687 8.16678C30.9957 5.94686 29.0248 4.05889 26.7011 2.66884ZM35.0621 14.1634C33.7136 15.2215 32.3235 16.2589 30.8505 17.151C30.6627 17.2637 30.4664 17.3891 30.2713 17.5138C30.0352 17.6646 29.8007 17.8144 29.5849 17.9394C31.6389 18.9352 33.6098 20.2008 35.1866 21.7983C35.56 19.1635 35.5393 16.7983 35.0621 14.1634ZM27.8217 26.4245C29.44 27.0262 31.1205 27.4826 32.801 27.8975C31.4109 30.1382 29.5022 32.1092 27.2408 33.5822C27.4067 31.0096 27.0333 28.3955 26.4109 25.9058V25.8851C26.7555 26.0402 27.186 26.1952 27.5835 26.3384L27.5846 26.3388C27.6653 26.3679 27.7447 26.3965 27.8217 26.4245ZM20.6642 36.1338C19.8758 34.2459 19.1289 32.3372 18.5272 30.4284C18.4842 30.2884 18.4383 30.1429 18.3918 29.9953L18.3918 29.9952L18.3917 29.9951C18.2591 29.5742 18.1215 29.1373 18.0293 28.7687C16.2243 31.1961 14.2949 33.5405 11.8882 35.4492C14.7928 36.2998 17.6351 36.6733 20.6642 36.1338ZM9.02553 25.1597C7.61474 27.1307 6.32843 29.2468 5.10436 31.363C2.69772 29.0186 0.996466 26.0726 0.166588 22.8983C3.40311 23.6659 6.8471 23.7904 10.1459 23.5622H10.1666C9.955 23.8485 9.72097 24.1796 9.48695 24.5107L9.48692 24.5108L9.48676 24.511L9.48657 24.5113C9.33068 24.7318 9.17479 24.9524 9.02553 25.1597ZM0 14.4325C2.59337 14.1213 5.20748 13.8516 7.7801 13.7686C7.99783 13.7618 8.22672 13.7528 8.45652 13.7437C8.92743 13.7251 9.40216 13.7064 9.79256 13.7064C7.67637 11.3205 5.7884 8.64413 4.56433 5.76031C2.26142 8.1877 0.684649 11.2168 0 14.4325Z" fill="#64C832"></path>
  <path fill-rule="evenodd" clip-rule="evenodd" d="M45.3317 12.1923C44.8546 15.7193 46.1409 17.8147 49.6678 19.184L54.3152 20.9475C55.7882 21.4662 56.1202 21.7152 55.9334 23.126C55.643 24.931 54.9168 25.4081 51.6596 25.4081H43.7757L43.0703 30.1177H51.8878C58.755 30.1177 61.0787 28.5824 61.7633 23.4994C62.199 20.3044 61.6181 18.0015 57.3857 16.4454L52.9874 14.8272C51.2861 14.2255 50.9749 13.9766 51.2031 12.5658C51.4521 10.989 52.0745 10.6363 53.3401 10.5533H62.7592L63.4646 5.84375H55.0621C49.3359 5.84375 46.0994 6.86035 45.3317 12.1923ZM72.0953 10.5533L72.7799 5.84375H67.0745L66.3691 10.5533H72.0953ZM69.2116 30.0969H63.5061L66.0165 12.9599H71.7427L69.2116 30.0969ZM83.2791 12.4837C80.0426 12.4837 77.8019 13.1269 76.2874 14.5169C74.7729 15.8862 73.9015 17.9609 73.4036 21.2804C72.9056 24.5792 73.3206 26.9028 74.6899 28.3759C75.9969 29.8074 78.1961 30.4921 81.4534 30.4921C83.0509 30.4921 85.3953 30.3468 87.4907 29.6829L87.636 29.6414L88.2376 25.5958L87.8642 25.658C86.3912 25.8655 84.5447 25.9485 82.3663 25.9485C80.8725 25.9485 80.1048 25.7825 79.6899 25.3261C79.1712 24.7659 79.0675 23.6663 79.3579 21.5501C79.8559 17.6289 81.1422 17.0065 84.0053 17.0065C85.1671 17.0065 89.5032 17.0688 89.5032 17.0688L90.0634 13.2306C90.0606 13.2334 90.0143 13.2219 89.9258 13.2C89.3556 13.0589 87.0324 12.4837 83.2791 12.4837ZM104.565 12.9599H105.664L105.457 13.3333C103.859 15.9267 103.341 18.1259 103.341 18.1466L103.299 18.3333H102.075C100.581 18.3333 98.5689 19.3707 97.8427 20.2421L96.4527 30.0969H90.7058L93.2161 12.9599H97.7597V16.2586C100.415 13.9557 102.469 12.9599 104.565 12.9599ZM123.112 18.5003C123.381 16.6953 123.091 15.3468 122.22 14.3924C121.058 13.1061 118.817 12.4837 115.394 12.4837C108.464 12.4837 105.85 14.6621 105.02 21.1352C104.605 24.4547 105.083 26.7991 106.493 28.2929C107.863 29.7659 110.145 30.4921 113.444 30.4921C115.767 30.4921 119.315 30.0771 121.556 29.185L121.763 29.102L121.701 28.8945C121.701 28.8918 121.692 28.8624 121.677 28.81L121.677 28.8095L121.676 28.8063L121.676 28.8061C121.573 28.4528 121.181 27.1047 121.037 25.8655L120.995 25.5958L120.726 25.658C120.041 25.824 115.809 26.0315 114.066 26.0315C112.033 26.0315 110.954 25.658 110.829 23.6871L115.767 23.3344C119.875 23.0646 122.551 22.1518 123.112 18.5003ZM111.161 20.2638C111.68 17.4837 112.344 16.6123 115.041 16.6123H115.581C116.493 16.6123 117.116 16.6746 117.365 16.9443C117.531 17.131 117.593 17.4422 117.551 17.9816C117.365 19.4962 116.576 19.8074 114.896 19.9319L111.161 20.2638ZM138.069 12.8769L139.106 5.86439L144.833 5.88514L141.243 30.1176H136.658V27.3997C134.376 29.4537 132.032 30.5118 129.646 30.5118C127.986 30.5118 126.741 30.0553 125.87 29.101C124.521 27.6487 124.127 25.0553 124.667 21.1964C125.725 13.9557 128.546 12.5034 132.779 12.5034C134.459 12.5034 136.368 12.6279 138.069 12.8769ZM131.575 25.823C133.318 25.7815 134.708 24.9101 136.492 23.3956L137.488 16.4868H134.978C131.783 16.4868 131.098 16.881 130.476 21.3209C130.164 23.603 130.061 25.0138 130.538 25.5325C130.745 25.7607 131.077 25.8437 131.575 25.823ZM153.34 10.5533L154.025 5.84375H148.319L147.635 10.5533H153.34ZM150.457 30.0969H144.751L147.262 12.9599H152.988L150.457 30.0969Z" fill="#64C832"></path>
</svg>